<?xml version="1.0" standalone="no"?><!DOCTYPE svg PUBLIC "-//W3C//DTD SVG 1.1//EN" "http://www.w3.org/Graphics/SVG/1.1/DTD/svg11.dtd"><svg t="1685497519760" class="icon" viewBox="0 0 1024 1024" version="1.1" xmlns="http://www.w3.org/2000/svg" p-id="20826" id="mx_n_1685497519761" data-spm-anchor-id="a313x.7781069.0.i19" xmlns:xlink="http://www.w3.org/1999/xlink" width="200" height="200"><path d="M512 1013.76l-245.1968-213.3504S358.912 875.52 512 875.52c149.8112 0 245.1968-75.008 245.1968-75.008z" fill="#52e88e" p-id="20827" data-spm-anchor-id="a313x.7781069.0.i22" class=""></path><path d="M512 430.08m-419.84 0a419.84 419.84 0 1 0 839.68 0 419.84 419.84 0 1 0-839.68 0Z" fill="#52e88e" opacity=".9" p-id="20828" data-spm-anchor-id="a313x.7781069.0.i20" class=""></path><path d="M286.4128 454.7584h197.376c18.7904 0 28.2112 9.3696 28.2112 28.2112v28.16q0 28.2112-28.2112 28.2112H286.4128c-18.8416 0-28.2112-9.4208-28.2112-28.2112v-28.16c0-18.8416 9.3696-28.2112 28.2112-28.2112z m0 0M756.1216 278.784a70.4 70.4 0 0 0-68.0448-105.6256 84.48 84.48 0 0 0-147.8656 55.9616 75.3152 75.3152 0 0 0 0.6144 9.6256 98.4576 98.4576 0 0 0 41.6768 187.8016 94.5664 94.5664 0 0 0 28.2112-4.8128v216.32a14.08 14.08 0 0 0 14.08 14.08h28.2112a13.9776 13.9776 0 0 0 14.08-14.08V450.0992a98.1504 98.1504 0 0 0 89.0368-171.3152z m-230.0416 288.768H244.0704a14.1824 14.1824 0 0 0-14.08 14.08v56.32a14.1312 14.1312 0 0 0 28.2112 0v-14.1312H512v14.1312a14.1312 14.1312 0 0 0 28.2112 0v-56.32a13.9264 13.9264 0 0 0-4.1472-9.9328 14.1312 14.1312 0 0 0-10.24-4.1472z m0 0" fill="#0b700b" p-id="20829" data-spm-anchor-id="a313x.7781069.0.i27" class=""></path></svg>